# xmcd CD database file
#
# Track frame offsets:
#	150
#	19352
#	36260
#	65352
#	101815
#	120657
#	137425
#	153882
#	177887
#	193327
#	206282
#	226290
#
# Disc length: 3294 seconds
#
# Revision: 4
# Processed by: cddbd v1.5.2PL0 Copyright (c) Steve Scherf et al.
# Submitted via: CDex 1.51
#
DISCID=a00cdc0c
DTITLE=Various Artist - The Best of the Blues Singers Volume III
DYEAR=1992
DGENRE=Blues
TTITLE0=Muddy Waters - Done Broke Down
TTITLE1=Muddy Waters - Baby Please Don't Go
TTITLE2=Muddy Waters - Baby Rock and Roll
TTITLE3=Junior Parker - Funny How Time Slips Away
TTITLE4=Junior Parker - Don't Throw Your Love on Me So Strong
TTITLE5=Junior Parker - Don't Let the Sun Catch You Cryin'
TTITLE6=Junior Parker - I Wonder Where Our Love Has Gone
TTITLE7=Junior Parker - No One Knows (What Goes On When the Door is Closed)
TTITLE8=Joe Williams with Thad Jones and Mel Lewis - Evil Man Blues
TTITLE9=Joe Williams with Thad Jones and Mel Lewis - Loneliness, Sorrow and Grief
TTITLE10=Joe Williams with Thad Jones and Mel Lewis - One More for My Baby (& One More for the Road)
TTITLE11=Joe Williams - Everyday I Have the Blues
EXTD=Sonny Lester Collection\nLRC LTD.  CDC 9047\nProduced by Sonny Lester\n1992 YEAR: 1992
EXTT0=
EXTT1=
EXTT2=
EXTT3=
EXTT4=
EXTT5=
EXTT6=
EXTT7=
EXTT8=
EXTT9=
EXTT10=
EXTT11=
PLAYORDER=
